<?xml version="1.0" ?><svg height="56.6934px" id="Layer_1" style="enable-background:new 0 0 56.6934 56.6934;" version="1.1" viewBox="0 0 56.6934 56.6934" width="56.6934px" xml:space="preserve" xmlns="http://www.w3.org/2000/svg" xmlns:xlink="http://www.w3.org/1999/xlink"><path d="M28.7412,4.165c-13.5996,0-24.625,11.0234-24.625,24.623c0,13.5997,11.0254,24.625,24.625,24.625  c13.5986,0,24.624-11.0253,24.624-24.625C53.3652,15.1883,42.3398,4.165,28.7412,4.165z M41.9575,30.8284  c-6.0128,0-11.9988,0-18.0048,0c0.0069,1.4767,0.4367,2.749,1.4282,3.8059c1.1519,1.2278,2.6302,1.8243,4.2499,2.0604  c3.3999,0.4956,6.6022-0.1252,9.5894-1.8317c0.0765-0.0437,0.1527-0.0879,0.2296-0.131c0.0076-0.0042,0.0188-0.0019,0.0645-0.0053  c0.0063,0.103,0.0181,0.2059,0.0181,0.309c0.0007,1.8137-0.0035,3.6275,0.0047,5.4412c0.0009,0.208-0.0663,0.3161-0.2502,0.4077  c-2.1419,1.0676-4.4089,1.6771-6.7912,1.8618c-1.5177,0.1176-3.0309,0.1185-4.5336-0.1862  c-4.5213-0.9166-8.1275-4.2271-8.955-8.8836c-0.9442-5.3137,1.5848-10.2199,6.6656-12.3896  c0.0158-0.0067,0.037-0.0008,0.1094-0.0008c-1.1304,1.2846-1.7167,2.7681-1.9387,4.4459c3.4016,0,6.7669,0,10.1574,0  c0-0.2484,0.0134-0.5005-0.0023-0.7509c-0.0687-1.0956-0.3043-2.147-0.9025-3.0854c-0.8016-1.2572-2.005-1.883-3.4371-2.1138  c-2.0781-0.3348-4.0831,0.0198-6.0313,0.7296c-2.8502,1.0385-5.2435,2.7353-7.148,5.1042  c-0.3201,0.3982-0.6049,0.8247-0.9561,1.3068c0.0291-0.2396,0.0458-0.4125,0.0715-0.584c0.4104-2.7437,1.3984-5.2465,3.1768-7.3956  c2.09-2.5257,4.7835-4.0219,8.0142-4.5433c3.1469-0.5078,6.1235,0.0027,8.8864,1.6029c2.5432,1.473,4.2961,3.6315,5.3425,6.3668  c0.6035,1.5776,0.8983,3.2173,0.9136,4.9067c0.0096,1.0641,0.0194,2.1282,0.0289,3.1923  C41.9583,30.5747,41.9575,30.6811,41.9575,30.8284z"/></svg>