<svg width="64.016" height="52" xmlns="http://www.w3.org/2000/svg">

 <g>
  <title>background</title>
  <rect fill="none" id="canvas_background" height="402" width="582" y="-1" x="-1"/>
 </g>
 <g>
  <title>Layer 1</title>
  <g id="Brush">
   <g id="svg_1">
    <path id="svg_2" fill="#CCCCCC" d="m26,26c-12.189,0 -10.437,14 -20,14c-3.813,0 -6,-2 -6,-2s3.119,14 18,14c11.102,0 20,-4.579 20,-14c0,-6.148 -4.779,-12 -12,-12z"/>
   </g>
  </g>
  <g id="Paint">
   <g id="svg_3">
    <path id="svg_4" fill="#ffffff" d="m10.016,46.102564c7.052,0 8,-6 8,-6c-2.149,2.179 -6,2 -6,2c1.651,-1.651 1.97,-6.03 2.031,-7.514c-1.93,2.939 -3.949,5.514 -8.047,5.514c-3.813,0 -6,-2 -6,-2s2.563,11.331 13.945,13.583c2.502,-1.005 4.07,-3.583 4.07,-3.583c-4.949,0.997 -7.999,-2 -7.999,-2z"/>
   </g>
  </g>
  <g id="Tube_1_">
   <g id="svg_5">
    <polygon id="svg_6" fill="#6D5778" points="34.016,18.001 28.016,28 36.016,36 46.016,30   "/>
   </g>
  </g>
  <g id="Handle_1_">
   <g id="svg_7">
    <path id="svg_8" fill="#9B7CAB" d="m50.016,0c-6,0 -16,18.001 -16,18.001l12,11.999c0,0 18,-10 18,-16c0,-2 -12,-14 -14,-14z"/>
   </g>
  </g>
  <g id="svg_9"/>
  <g id="svg_10"/>
  <g id="svg_11"/>
  <g id="svg_12"/>
  <g id="svg_13"/>
  <g id="svg_14"/>
  <g id="svg_15"/>
  <g id="svg_16"/>
  <g id="svg_17"/>
  <g id="svg_18"/>
  <g id="svg_19"/>
  <g id="svg_20"/>
  <g id="svg_21"/>
  <g id="svg_22"/>
  <g id="svg_23"/>
 </g>
</svg>